<?xml version="1.0" encoding="utf-8"?>
<!-- Generator: Adobe Illustrator 28.3.0, SVG Export Plug-In . SVG Version: 6.00 Build 0)  -->
<svg version="1.1" id="Capa_1" xmlns="http://www.w3.org/2000/svg" xmlns:xlink="http://www.w3.org/1999/xlink" x="0px" y="0px"
	 viewBox="0 0 1700.79 566.93" style="enable-background:new 0 0 1700.79 566.93;" xml:space="preserve">
<g>
	<path d="M459.51,221.36l-37.35,113.15h25.42l8.96-28.06h47.27l9.18,28.06h26.35l-38.75-113.15H459.51z M463.27,285.37l13.81-43.24
		h5.67l14.16,43.24H463.27z"/>
	<polygon points="542.59,221.36 542.59,239.65 552.67,239.65 552.67,334.51 577.62,334.51 577.62,239.65 577.62,221.36 
		552.67,221.36 	"/>
	<path d="M681.78,259.25c-3.31-3.88-7.31-6.87-12.01-8.99c-4.7-2.12-9.95-3.18-15.73-3.18c-6.61,0-12.5,1.47-17.67,4.42
		c-4.61,2.62-8.32,6.41-11.16,11.33v-41.47h-24.8v113.15h19.69v-18.52c0.55,1.43,1.16,2.81,1.86,4.11c3,5.58,7.13,9.84,12.4,12.79
		c5.27,2.95,11.37,4.42,18.29,4.42c6.1,0,11.57-1.11,16.43-3.33c4.86-2.22,9.01-5.32,12.48-9.3c3.46-3.98,6.1-8.6,7.91-13.87
		c1.81-5.27,2.71-11,2.71-17.21v-3.41c0-6.2-0.9-11.94-2.71-17.21C687.65,267.7,685.09,263.13,681.78,259.25z M664.58,304.67
		c-1.76,3.77-4.21,6.69-7.36,8.76c-3.15,2.07-6.85,3.1-11.08,3.1c-3.51,0-6.92-0.83-10.23-2.48c-3.31-1.65-6.02-4.05-8.14-7.21
		c-2.12-3.15-3.18-6.95-3.18-11.39v-5.74c0-4.65,1.01-8.6,3.02-11.86c2.02-3.25,4.67-5.76,7.98-7.52c3.31-1.76,6.82-2.63,10.54-2.63
		c4.24,0,7.93,1.01,11.08,3.02c3.15,2.02,5.6,4.83,7.36,8.45c1.76,3.62,2.63,7.85,2.63,12.71
		C667.21,296.64,666.33,300.9,664.58,304.67z"/>
	<path d="M770.36,252.75c-6.25-4.08-13.93-6.12-23.02-6.12c-6.92,0-13.1,1.22-18.52,3.64c-5.43,2.43-9.95,5.71-13.56,9.84
		c-3.62,4.13-6.38,8.81-8.29,14.03c-1.91,5.22-2.87,10.67-2.87,16.35v3.1c0,5.48,0.95,10.83,2.87,16.04
		c1.91,5.22,4.7,9.92,8.37,14.11c3.67,4.19,8.27,7.52,13.8,10c5.53,2.48,11.91,3.72,19.14,3.72c7.13,0,13.43-1.24,18.91-3.72
		c5.48-2.48,10.02-5.94,13.64-10.39c3.62-4.44,6.05-9.51,7.29-15.19h-22.79c-1.03,2.58-3,4.76-5.89,6.51
		c-2.89,1.76-6.61,2.64-11.16,2.64c-4.96,0-8.99-1.03-12.09-3.1c-3.1-2.07-5.37-4.98-6.82-8.76c-0.8-2.09-1.36-4.41-1.72-6.9h62.01
		v-8.37c0-7.75-1.65-14.91-4.96-21.47C781.39,262.15,776.62,256.83,770.36,252.75z M727.82,284.44c0.39-2.24,0.95-4.29,1.71-6.12
		c1.55-3.77,3.82-6.64,6.82-8.6c3-1.96,6.66-2.95,11-2.95c4.24,0,7.77,0.96,10.62,2.87c2.84,1.91,4.98,4.68,6.43,8.29
		c0.78,1.95,1.33,4.13,1.69,6.51H727.82z"/>
	<path d="M832.98,258.25c-3.86,4.92-6.26,11.4-7.21,19.44v-28.12h-19.69v84.94h24.8v-43.25c0-6.92,1.86-12.22,5.58-15.89
		c3.72-3.67,8.99-5.5,15.81-5.5h6.2v-21.39h-3.26C845.51,248.48,838.1,251.74,832.98,258.25z"/>
	<path d="M899.09,226.63h-23.1v22.94h-12.86v18.14h12.86v33.63c0,8.58,1.21,15.37,3.64,20.38c2.43,5.01,6.28,8.58,11.55,10.7
		c5.27,2.12,12.19,3.18,20.77,3.18h11.94v-20.93h-12.56c-3.93,0-6.95-1.06-9.07-3.18c-2.12-2.12-3.18-5.19-3.18-9.22V267.7h24.8
		v-18.14h-24.8V226.63z"/>
	<path d="M1015.96,259.64c-4.03-4.03-8.91-7.21-14.65-9.53c-5.73-2.32-12.27-3.49-19.61-3.49c-7.13,0-13.59,1.16-19.38,3.49
		c-5.79,2.32-10.72,5.5-14.8,9.53c-4.08,4.03-7.18,8.71-9.3,14.03c-2.12,5.32-3.18,10.93-3.18,16.82v3.57
		c0,5.79,1.03,11.29,3.1,16.51c2.07,5.22,5.09,9.84,9.07,13.87c3.98,4.03,8.86,7.21,14.65,9.53c5.79,2.32,12.4,3.49,19.84,3.49
		c7.54,0,14.21-1.16,20-3.49c5.79-2.32,10.67-5.5,14.65-9.53c3.98-4.03,7-8.65,9.07-13.87c2.07-5.22,3.1-10.72,3.1-16.51v-3.57
		c0-5.89-1.08-11.5-3.25-16.82C1023.09,268.35,1019.99,263.67,1015.96,259.64z M1001.16,304.75c-1.71,3.72-4.16,6.61-7.36,8.68
		c-3.2,2.07-7.23,3.1-12.09,3.1c-4.65,0-8.63-1.03-11.93-3.1c-3.31-2.07-5.79-4.96-7.44-8.68c-1.65-3.72-2.48-7.85-2.48-12.4
		c0-4.86,0.85-9.12,2.56-12.79c1.71-3.67,4.21-6.59,7.52-8.76c3.31-2.17,7.23-3.26,11.78-3.26c4.65,0,8.6,1.09,11.86,3.26
		c3.26,2.17,5.76,5.09,7.52,8.76c1.76,3.67,2.64,7.93,2.64,12.79C1003.71,296.9,1002.86,301.03,1001.16,304.75z"/>
	<path d="M1145.54,271.81c-6.3-2.84-13.59-4.62-21.86-5.35l-8.68-0.77c-5.17-0.41-8.89-1.81-11.16-4.18
		c-2.27-2.38-3.41-5.17-3.41-8.37c0-2.48,0.62-4.78,1.86-6.9c1.24-2.12,3.12-3.8,5.66-5.04c2.53-1.24,5.66-1.86,9.38-1.86
		c3.93,0,7.21,0.72,9.84,2.17c2.64,1.45,4.62,3.33,5.97,5.66c1.34,2.33,2.02,4.88,2.02,7.67h24.8c0-7.44-1.71-13.92-5.12-19.45
		c-3.41-5.53-8.29-9.82-14.65-12.87c-6.36-3.05-13.98-4.57-22.86-4.57c-8.47,0-15.81,1.42-22.01,4.26
		c-6.2,2.84-11.03,6.9-14.49,12.17c-3.46,5.27-5.19,11.52-5.19,18.75c0,10.02,3.36,18.08,10.07,24.18
		c6.72,6.1,15.71,9.61,26.97,10.54l8.53,0.78c6.92,0.62,11.93,1.99,15.04,4.11c3.1,2.12,4.65,4.99,4.65,8.6
		c0,2.9-0.83,5.45-2.48,7.67c-1.65,2.22-4.08,3.95-7.29,5.19c-3.2,1.24-7.18,1.86-11.94,1.86c-5.27,0-9.56-0.75-12.87-2.25
		c-3.31-1.5-5.76-3.49-7.36-5.97c-1.6-2.48-2.4-5.17-2.4-8.06h-24.64c0,7.34,1.81,13.82,5.43,19.45
		c3.62,5.63,8.94,10.07,15.97,13.33c7.03,3.25,15.65,4.88,25.89,4.88c9.61,0,17.88-1.5,24.8-4.5c6.92-2.99,12.27-7.21,16.04-12.63
		c3.77-5.43,5.66-11.75,5.66-18.99c0-7.03-1.78-12.99-5.35-17.9C1156.78,278.53,1151.84,274.65,1145.54,271.81z"/>
	<path d="M1234.58,251.89c-5.94-2.48-13.25-3.72-21.93-3.72c-3,0-6.2,0.05-9.61,0.16c-3.41,0.1-6.72,0.26-9.92,0.46
		c-3.2,0.21-5.99,0.41-8.37,0.62v20.92c3.2-0.21,6.77-0.41,10.7-0.62c3.93-0.21,7.75-0.36,11.47-0.46c3.72-0.1,6.72-0.16,8.99-0.16
		c4.55,0,7.85,1.09,9.92,3.25c2.07,2.17,3.1,5.43,3.1,9.77v0.31h-15.35c-7.54,0-14.21,0.96-19.99,2.87
		c-5.79,1.91-10.28,4.86-13.49,8.83c-3.2,3.98-4.8,9.07-4.8,15.27c0,5.68,1.29,10.57,3.88,14.65c2.58,4.08,6.17,7.21,10.77,9.38
		c4.6,2.17,9.94,3.26,16.04,3.26c5.89,0,10.87-1.09,14.96-3.26c4.08-2.17,7.29-5.27,9.61-9.3c1.04-1.81,1.88-3.83,2.56-6.02v16.41
		h19.69v-52.08c0-7.85-1.55-14.28-4.65-19.3C1245.05,258.12,1240.53,254.37,1234.58,251.89z M1228.93,303.04
		c-0.21,4.24-1.03,7.54-2.48,9.92c-1.45,2.38-3.28,4.06-5.5,5.04c-2.22,0.98-4.73,1.47-7.52,1.47c-4.34,0-7.67-1.06-10-3.18
		c-2.32-2.12-3.49-4.88-3.49-8.29c0-3.62,1.16-6.49,3.49-8.6c2.32-2.11,5.66-3.18,10-3.18h15.5V303.04z"/>
	<path d="M1323.32,246.93h-1.08c-6.51,0-12.04,1.45-16.59,4.34c-4.55,2.89-7.93,7.23-10.15,13.02c-0.79,2.05-1.43,4.3-1.94,6.71
		v-21.44h-19.69v84.94h24.8v-49.45c0-4.75,1.42-8.6,4.26-11.55c2.84-2.95,6.59-4.42,11.24-4.42c4.55,0,8.16,1.45,10.85,4.34
		c2.69,2.89,4.03,6.61,4.03,11.16v49.91h24.8v-48.52c0-13.12-2.61-22.91-7.83-29.37C1340.81,250.16,1333.24,246.93,1323.32,246.93z"
		/>
	<path d="M1427.1,309.48c-1.39,2.12-3.26,3.77-5.58,4.96c-2.32,1.19-5.14,1.78-8.45,1.78c-4.45,0-8.04-1.01-10.77-3.02
		c-2.74-2.02-4.73-4.86-5.97-8.52c-1.24-3.67-1.86-7.78-1.86-12.32c0-4.96,0.67-9.25,2.02-12.86c1.34-3.62,3.38-6.46,6.12-8.53
		c2.74-2.07,6.17-3.1,10.31-3.1c4.96,0,8.76,1.32,11.39,3.95c2.64,2.64,4.16,5.87,4.57,9.69h24.34c-0.42-6.82-2.38-12.86-5.89-18.13
		c-3.51-5.27-8.22-9.38-14.11-12.32c-5.89-2.95-12.66-4.42-20.31-4.42c-7.03,0-13.25,1.19-18.68,3.57
		c-5.43,2.38-9.95,5.63-13.56,9.77c-3.62,4.13-6.36,8.86-8.21,14.18c-1.86,5.32-2.79,10.88-2.79,16.66v2.95
		c0,5.58,0.88,10.98,2.64,16.2c1.76,5.22,4.44,9.9,8.06,14.03c3.62,4.13,8.14,7.41,13.56,9.84c5.43,2.43,11.8,3.64,19.14,3.64
		c7.65,0,14.46-1.47,20.46-4.42c5.99-2.95,10.8-7.08,14.42-12.4c3.62-5.32,5.58-11.5,5.89-18.52h-24.18
		C1429.34,304.9,1428.49,307.36,1427.1,309.48z"/>
	<path d="M1520.64,246.93h-1.08c-6.41,0-11.73,1.52-15.97,4.57c-3.95,2.84-6.99,6.94-9.15,12.25v-42.4h-24.8v113.15h24.8v-47.9
		v-1.09c0-4.96,1.42-8.94,4.26-11.93c2.84-3,6.59-4.5,11.24-4.5c4.44,0,8.03,1.42,10.77,4.26c2.74,2.84,4.11,6.59,4.11,11.24v49.91
		h24.8v-48.36c0-12.81-2.48-22.55-7.44-29.22S1530.04,246.93,1520.64,246.93z"/>
	<path d="M1655.64,273.67c-2.17-5.32-5.27-10-9.3-14.03c-4.03-4.03-8.91-7.21-14.65-9.53s-12.27-3.49-19.61-3.49
		c-7.13,0-13.59,1.16-19.38,3.49c-5.79,2.32-10.72,5.5-14.8,9.53c-4.08,4.03-7.18,8.71-9.3,14.03c-2.12,5.32-3.18,10.93-3.18,16.82
		v3.57c0,5.79,1.03,11.29,3.1,16.51c2.07,5.22,5.09,9.84,9.07,13.87c3.98,4.03,8.86,7.21,14.65,9.53c5.79,2.32,12.4,3.49,19.84,3.49
		c7.54,0,14.21-1.16,20-3.49c5.79-2.32,10.67-5.5,14.65-9.53c3.98-4.03,7-8.65,9.07-13.87c2.07-5.22,3.1-10.72,3.1-16.51v-3.57
		C1658.9,284.6,1657.81,278.99,1655.64,273.67z M1631.54,304.75c-1.7,3.72-4.16,6.61-7.36,8.68c-3.2,2.07-7.23,3.1-12.09,3.1
		c-4.65,0-8.63-1.03-11.93-3.1c-3.31-2.07-5.79-4.96-7.44-8.68c-1.65-3.72-2.48-7.85-2.48-12.4c0-4.86,0.85-9.12,2.56-12.79
		c1.71-3.67,4.21-6.59,7.52-8.76c3.3-2.17,7.23-3.26,11.78-3.26c4.65,0,8.6,1.09,11.86,3.26c3.25,2.17,5.76,5.09,7.52,8.76
		c1.76,3.67,2.64,7.93,2.64,12.79C1634.1,296.9,1633.25,301.03,1631.54,304.75z"/>
	<polygon points="162.06,252.1 152.12,283.22 176.33,283.22 166.14,252.1 	"/>
	<path d="M336.23,134.53H65.13c-9.52,0-17.24,7.72-17.24,17.24v251.87c0,9.52,7.72,17.24,17.24,17.24h271.1
		c9.52,0,17.24-7.72,17.24-17.24V151.77C353.47,142.25,345.75,134.53,336.23,134.53z M114.1,194.1h-2.86c-3.82,0-6.77,1.9-8.85,5.7
		c-2.08,3.81-3.12,9.37-3.12,16.7v36.1c0,7.19-1.04,12.76-3.12,16.7s-5.12,6.33-9.11,7.16v1.66c3.99,0.83,7.03,3.18,9.11,7.06
		s3.12,9.47,3.12,16.8v36.93c0,7.33,1.04,12.89,3.12,16.7c2.08,3.8,5.03,5.7,8.85,5.7h2.86v15.77h-2.86
		c-7.12,0-12.88-3.39-17.31-10.17c-4.42-6.77-6.64-16.39-6.64-28.83V299.9c0-4.29-0.83-7.57-2.47-9.85
		c-1.65-2.28-3.77-3.42-6.38-3.42v-18.67c2.6,0,4.73-1.14,6.38-3.42c1.65-2.28,2.47-5.57,2.47-9.85v-37.34
		c0-12.45,2.21-22.06,6.64-28.83c4.42-6.77,10.19-10.17,17.31-10.17h2.86V194.1z M187.91,318.58l-6.61-20.19h-34.02l-6.45,20.19
		h-18.29l26.88-81.43h29.56l27.89,81.43H187.91z M274.75,308.38c-2.72,3.91-6.56,6.94-11.55,9.09c-4.98,2.16-10.93,3.23-17.85,3.23
		c-7.36,0-13.57-1.17-18.63-3.51c-5.06-2.34-8.89-5.54-11.49-9.59c-2.6-4.05-3.9-8.72-3.9-14h17.74c0,2.08,0.58,4.02,1.73,5.8
		c1.15,1.78,2.92,3.22,5.3,4.3c2.38,1.08,5.47,1.62,9.26,1.62c3.42,0,6.28-0.45,8.59-1.34c2.3-0.89,4.05-2.14,5.24-3.74
		c1.19-1.6,1.78-3.44,1.78-5.52c0-2.6-1.12-4.67-3.35-6.19c-2.23-1.52-5.84-2.51-10.82-2.96l-6.13-0.56
		c-8.11-0.67-14.58-3.2-19.41-7.59c-4.83-4.39-7.25-10.19-7.25-17.4c0-5.21,1.24-9.7,3.74-13.5c2.49-3.79,5.97-6.71,10.43-8.76
		c4.46-2.04,9.74-3.07,15.84-3.07c6.4,0,11.88,1.1,16.45,3.29c4.57,2.19,8.09,5.28,10.54,9.26c2.45,3.98,3.68,8.65,3.68,14h-17.85
		c0-2.01-0.48-3.85-1.45-5.52c-0.97-1.67-2.4-3.03-4.29-4.07c-1.9-1.04-4.26-1.56-7.08-1.56c-2.68,0-4.93,0.45-6.75,1.34
		c-1.82,0.89-3.18,2.1-4.07,3.63c-0.89,1.53-1.34,3.18-1.34,4.96c0,2.31,0.82,4.31,2.45,6.02c1.63,1.71,4.31,2.71,8.03,3.01
		l6.25,0.56c5.95,0.52,11.19,1.8,15.73,3.85c4.54,2.05,8.09,4.83,10.65,8.37c2.57,3.53,3.85,7.83,3.85,12.88
		C278.82,299.92,277.46,304.47,274.75,308.38z M322.92,286.62c-2.6,0-4.73,1.14-6.38,3.42c-1.65,2.28-2.47,5.57-2.47,9.85v38.17
		c0,12.45-2.21,22.06-6.64,28.83c-4.42,6.78-10.2,10.17-17.31,10.17h-2.86V361.3h2.86c3.82,0,6.77-1.9,8.85-5.7
		c2.08-3.81,3.12-9.37,3.12-16.7v-36.93c0-7.33,1.04-12.93,3.12-16.8c2.08-3.87,5.12-6.23,9.11-7.06v-1.66
		c-3.99-0.83-7.03-3.22-9.11-7.16c-2.08-3.94-3.12-9.51-3.12-16.7v-36.1c0-7.33-1.04-12.89-3.12-16.7c-2.08-3.8-5.03-5.7-8.85-5.7
		h-2.86v-15.77h2.86c7.11,0,12.88,3.39,17.31,10.17c4.43,6.78,6.64,16.39,6.64,28.83v37.34c0,4.29,0.82,7.57,2.47,9.85
		c1.65,2.28,3.77,3.42,6.38,3.42V286.62z"/>
</g>
</svg>
