<?xml version="1.0" encoding="UTF-8"?>
<svg id="Capa_2" data-name="Capa 2" xmlns="http://www.w3.org/2000/svg" viewBox="0 0 56.7 45.17">
  <defs>
    <style>
      .cls-1 {
        fill: #010101;
        stroke-width: 0px;
      }
    </style>
  </defs>
  <g id="Capa_1-2" data-name="Capa 1">
    <g>
      <path class="cls-1" d="M51.44,15.79c-.96-3.12-1.1-6.94-.99-9.89.11-3.07-2.29-5.9-5.52-5.9H11.78c-3.24,0-5.63,2.83-5.52,5.9.1,2.95-.03,6.77-.99,9.89-.96,3.13-2.6,5.11-5.26,5.36v2.87c2.67.25,4.3,2.23,5.26,5.36.96,3.12,1.1,6.94.99,9.89-.11,3.07,2.29,5.9,5.52,5.9h33.15c3.24,0,5.63-2.83,5.52-5.9-.1-2.95.03-6.77.99-9.89.97-3.13,2.59-5.11,5.26-5.36v-2.87c-2.67-.25-4.29-2.23-5.26-5.36ZM30.05,34.6h-8.91c-.25,0-.5-.1-.68-.28-.18-.18-.28-.42-.28-.68V11.53c0-.25.1-.5.28-.68.18-.18.42-.28.68-.28h8.86c4.36,0,7.23,2.36,7.23,5.99,0,2.55-1.93,4.83-4.38,5.23v.13c3.34.37,5.59,2.68,5.59,5.88,0,4.23-3.15,6.79-8.39,6.79Z"/>
      <path class="cls-1" d="M33.41,17.08c0-2.23-1.57-3.46-4.33-3.46h-5.08v7.18h4.28c3.31,0,5.13-1.33,5.13-3.71Z"/>
      <path class="cls-1" d="M29.05,23.64h-5.05v7.91h5.27c3.44,0,5.27-1.38,5.27-3.98s-1.88-3.93-5.49-3.93Z"/>
    </g>
  </g>
</svg>