<?xml version="1.0" encoding="UTF-8"?>
<svg id="Capa_2" data-name="Capa 2" xmlns="http://www.w3.org/2000/svg" viewBox="0 0 43.68 57.08">
  <defs>
    <style>
      .cls-1 {
        fill: #010101;
        stroke-width: 0px;
      }
    </style>
  </defs>
  <g id="Capa_1-2" data-name="Capa 1">
    <path class="cls-1" d="M30.83,12.16c-3.9-3.21-6.96-7.29-8.92-11.95l-.08-.2c-2.03,4.86-5.09,8.94-8.93,12.11l-.05.04C6.83,18.17,0,24.99,0,35.22v.03c0,12.06,9.78,21.83,21.84,21.83s21.84-9.78,21.84-21.83v-.03c0-10.23-6.83-17.05-12.85-23.07h0ZM9.81,39.89c-.16.44-.39.43-.53.42h0c-1.34-.04-6.28-8.56,2.89-17.63l6.06,6.63c.1.09.15.22.15.37,0,.16-.07.31-.19.4h0c-3.1,2.92-5.86,6.13-8.26,9.61l-.13.2ZM29.35,44.03h0c0,4.15-3.36,7.51-7.51,7.51h0c-4.15,0-7.51-3.36-7.51-7.51h0c.03-1.9.73-3.63,1.88-4.97,1.36-1.66,5.63-6.3,5.63-6.3,0,0,4.22,4.73,5.63,6.3,1.17,1.3,1.88,3.02,1.88,4.91v.06ZM34.33,26.58l.2.28c1.58,2.17,2.53,4.88,2.53,7.82,0,1.64-.3,3.21-.84,4.67-.16.36-.53.95-1.02.96-.88.03-.98-.42-1.63-1.39-1.44-2.12-13.95-15.19-16.29-17.72-2.06-2.22-.29-3.79.53-4.61,1.03-1.03,4.03-4.03,4.03-4.03,4.59,4.33,8.75,9.01,12.49,14.02Z"/>
  </g>
</svg>