<?xml version="1.0" encoding="UTF-8"?>
<svg id="Capa_2" data-name="Capa 2" xmlns="http://www.w3.org/2000/svg" viewBox="0 0 33.33 47.62">
  <defs>
    <style>
      .cls-1 {
        fill: #010101;
        stroke-width: 0px;
      }
    </style>
  </defs>
  <g id="Capa_1-2" data-name="Capa 1">
    <path class="cls-1" d="M30.1,16.67c1.98-1.75,3.23-4.3,3.23-7.14,0-5.25-4.27-9.52-9.52-9.52h-14.29C4.27,0,0,4.27,0,9.52c0,2.84,1.25,5.4,3.23,7.14-1.98,1.75-3.23,4.3-3.23,7.14s1.25,5.4,3.23,7.14c-1.98,1.75-3.23,4.3-3.23,7.14,0,5.25,4.27,9.52,9.52,9.52s9.52-4.27,9.52-9.52v-6.04c1.4.81,3.03,1.28,4.76,1.28,5.25,0,9.52-4.27,9.52-9.52,0-2.84-1.25-5.4-3.23-7.14ZM14.29,38.1c0,2.63-2.14,4.76-4.76,4.76s-4.76-2.14-4.76-4.76,2.14-4.76,4.76-4.76h4.76v4.76ZM14.29,28.57h-4.76c-2.63,0-4.76-2.14-4.76-4.76s2.14-4.76,4.76-4.76h4.76v9.52ZM14.29,14.29h-4.76c-2.63,0-4.76-2.14-4.76-4.76s2.14-4.76,4.76-4.76h4.76v9.52ZM23.81,28.57c-2.63,0-4.76-2.14-4.76-4.76s2.14-4.76,4.76-4.76,4.76,2.14,4.76,4.76-2.14,4.76-4.76,4.76ZM23.81,14.29h-4.76V4.76h4.76c2.63,0,4.76,2.14,4.76,4.76s-2.14,4.76-4.76,4.76Z"/>
  </g>
</svg>