<?xml version="1.0" encoding="UTF-8"?>
<svg id="Capa_2" data-name="Capa 2" xmlns="http://www.w3.org/2000/svg" viewBox="0 0 51.28 51.28">
  <defs>
    <style>
      .cls-1 {
        fill: #000;
        stroke-width: 0px;
      }
    </style>
  </defs>
  <g id="Capa_1-2" data-name="Capa 1">
    <path class="cls-1" d="M50.2,23.07L28.2,1.08c-.68-.68-1.62-1.08-2.56-1.08s-1.89.4-2.56,1.08l-4.72,4.72,5.53,5.53c.54-.27,1.08-.4,1.75-.4,2.29,0,4.05,1.75,4.05,4.05,0,.68-.14,1.21-.4,1.75l5.4,5.4c.54-.27,1.08-.4,1.75-.4,2.29,0,4.05,1.75,4.05,4.05s-1.75,4.05-4.05,4.05-4.05-1.75-4.05-4.05c0-.68.14-1.21.4-1.75l-5.4-5.4c-.14,0-.27.14-.4.14v14.03c1.62.54,2.7,2.02,2.7,3.78,0,2.29-1.75,4.05-4.05,4.05s-4.05-1.75-4.05-4.05c0-1.75,1.08-3.24,2.7-3.78v-14.17c-1.62-.54-2.7-2.02-2.7-3.78,0-.68.14-1.21.4-1.75l-5.53-5.53L1.08,23.07c-.68.68-1.08,1.62-1.08,2.56s.4,1.89,1.08,2.56l21.99,21.99c.68.68,1.62,1.08,2.56,1.08s1.89-.4,2.56-1.08l21.99-21.99c.68-.68,1.08-1.62,1.08-2.56s-.4-1.89-1.08-2.56Z"/>
  </g>
</svg>