<?xml version="1.0" encoding="UTF-8"?>
<svg id="Capa_2" data-name="Capa 2" xmlns="http://www.w3.org/2000/svg" viewBox="0 0 47.23 48.18">
  <defs>
    <style>
      .cls-1 {
        fill: #010101;
        stroke-width: 0px;
      }
    </style>
  </defs>
  <g id="Capa_1-2" data-name="Capa 1">
    <path class="cls-1" d="M46.81,19.75c.28,1.62.42,3.26.42,4.9,0,7.33-2.62,13.53-7.18,17.72h0c-3.99,3.68-9.47,5.82-15.97,5.82C10.79,48.18,0,37.4,0,24.09S10.79,0,24.09,0c5.98-.07,11.76,2.18,16.12,6.27l-6.88,6.88c-2.49-2.37-5.8-3.67-9.24-3.61-6.28,0-11.62,4.24-13.53,9.95-1.01,2.99-1.01,6.23,0,9.22h0c1.91,5.7,7.24,9.94,13.53,9.94,3.25,0,6.03-.83,8.2-2.3h0c2.54-1.68,4.28-4.33,4.82-7.32h-13.01v-9.28h22.72Z"/>
  </g>
</svg>