<?xml version="1.0" encoding="UTF-8"?>
<svg id="Capa_2" data-name="Capa 2" xmlns="http://www.w3.org/2000/svg" viewBox="0 0 56 56">
  <defs>
    <style>
      .cls-1 {
        fill: #1d1d1b;
        stroke-width: 0px;
      }
    </style>
  </defs>
  <g id="Capa_1-2" data-name="Capa 1">
    <path class="cls-1" d="M0,0v56h56V0H0ZM30.07,39.49c0,5.24-3.04,7.62-7.48,7.62-4.01,0-6.9-2.72-8.08-5.24l4.07-2.49c.79,1.41,1.98,2.49,3.7,2.49s2.59-.65,2.59-3.18v-16.47h5.18v17.27ZM41.46,47.11c-4.67,0-7.32-2.34-8.79-5.24l3.95-2.62c1.08,1.75,2.25,3.42,4.72,3.42,2.08,0,3.17-1.03,3.17-2.46,0-1.71-1.13-2.32-3.42-3.32l-1.26-.53c-3.62-1.54-6.03-3.46-6.03-7.53,0-3.75,2.87-6.6,7.36-6.6,3.19,0,5.49,1.11,7.14,4l-3.91,2.5c-.86-1.54-1.79-2.14-3.23-2.14s-2.4.93-2.4,2.14c0,1.5.93,2.11,3.09,3.03l1.26.54c4.27,1.82,6.68,3.67,6.68,7.85,0,4.5-3.55,6.96-8.32,6.96Z"/>
  </g>
</svg>