<?xml version="1.0" encoding="UTF-8"?>
<svg id="Capa_2" data-name="Capa 2" xmlns="http://www.w3.org/2000/svg" viewBox="0 0 69.94 47.5">
  <defs>
    <style>
      .cls-1 {
        fill: #1e1e1c;
        stroke-width: 0px;
      }
    </style>
  </defs>
  <g id="Capa_1-2" data-name="Capa 1">
    <g>
      <path class="cls-1" d="M38.45,35.39s-2.32-1.32-3.46-1.94c-1.26-.7-1.94-1.53-1.94-2.48,0-.62.28-1.13.72-1.53.44-.4,1.08-.6,1.91-.6,1.02,0,2.06.22,3.1.67l.62-1.39c-1.23-.79-2.59-1.19-4.08-1.19s-2.63.4-3.55,1.21c-.92.8-1.37,1.86-1.37,3.16,0,1.58.61,2.54,1.84,3.43,0,0,2.26,1.3,3.39,1.92,1.23.69,1.89,1.5,1.89,2.46,0,.76-.33,1.36-.88,1.79-.55.43-1.31.64-2.28.64-1.04,0-2.19-.32-3.46-.95l-.69,1.38c1.48,1,3.01,1.51,4.59,1.51,1.69,0,3.03-.44,4.03-1.31,1-.88,1.5-2,1.5-3.37h0c0-1.57-.63-2.52-1.88-3.41Z"/>
      <path class="cls-1" d="M23.52,41.52c.08-.62-.12-1.71-.6-3.27l-2.13-6.88h-2.65l2.96,9.2c.45,1.39.67,2.3.67,2.75,0,.65-.29,1.24-.86,1.77-.48.43-1.11.65-1.89.65-.43,0-.8-.03-1.12-.07v1.44c.65.27,1.2.4,1.65.4,1.67,0,3.21-1.04,4.61-3.12,1.8-2.7,3.25-7.04,4.35-13h0s-2.56,0-2.56,0c-.46,3.66-1.27,7.05-2.44,10.15Z"/>
      <path class="cls-1" d="M12.37,27.15l-3.92,11.85h-.02l-3.89-11.85H1.19c-.64,5.02-1.04,10.39-1.19,16.12h2.46c.08-4.71.27-9,.57-12.85h.02l4.08,12.85h2.05l4.11-12.85h.02c.43,4.01.69,8.29.79,12.85h2.7c-.13-4.87-.54-10.25-1.24-16.12h-3.2Z"/>
      <path class="cls-1" d="M52.54,41.48c1.26-1.48,1.89-3.67,1.89-6.57,0-5.33-2.09-8-6.28-8-2.05,0-3.66.68-4.8,2.03-1.26,1.48-1.89,3.66-1.89,6.54s.56,4.91,1.67,6.23c1.02,1.19,2.56,1.79,4.61,1.79.77,0,1.47-.09,2.11-.28l3.86,2.25,1.05-1.81-2.96-1.46c.26-.22.51-.45.74-.72ZM48.01,41.5c-1.29,0-2.24-.48-2.84-1.46-.65-1.05-.98-2.74-.98-5.06,0-4.06,1.23-6.09,3.7-6.09,1.29,0,2.24.49,2.84,1.46.65,1.05.98,2.72.98,5.02,0,4.09-1.23,6.14-3.7,6.14Z"/>
      <path class="cls-1" d="M69.63,27.43l-.59-.56c-.57-.76-1.27-1.42-2.03-1.97-.62-.43-1.99-1.01-2.24-1.73l-.04-.04c.43-.04.94-.2,1.34-.31.66-.17,1.27-.14,1.95-.31.31-.08.62-.18.94-.27v-.18c-.35-.35-.6-.82-.97-1.15-.99-.86-2.08-1.69-3.21-2.4-.6-.39-1.38-.64-2.03-.97-.23-.12-.62-.18-.76-.37-.35-.43-.55-.99-.8-1.5-.56-1.07-1.11-2.26-1.6-3.39-.35-.76-.57-1.52-.99-2.22-2.01-3.31-4.19-5.32-7.54-7.29-.72-.41-1.58-.58-2.49-.8l-1.46-.08c-.31-.14-.62-.51-.9-.68-1.11-.7-3.97-2.22-4.79-.21-.53,1.27.78,2.51,1.23,3.16.33.45.76.95.99,1.46.14.33.18.68.31,1.03.31.86.6,1.81,1.01,2.61.21.41.45.84.72,1.21.16.22.43.31.49.66-.27.39-.29.97-.45,1.46-.7,2.2-.43,4.93.57,6.55.31.49,1.05,1.56,2.04,1.15.88-.35.68-1.46.94-2.43.06-.24.02-.39.14-.54v.04c.27.54.55,1.07.8,1.62.6.95,1.66,1.95,2.53,2.61.47.35.84.96,1.42,1.17v-.06h-.04c-.12-.17-.29-.25-.45-.39-.35-.35-.74-.78-1.01-1.17-.82-1.09-1.54-2.3-2.18-3.55-.31-.6-.58-1.27-.84-1.87-.12-.23-.12-.58-.31-.7-.29.43-.72.8-.93,1.32-.37.84-.41,1.87-.55,2.94l-.08.04c-.62-.16-.84-.8-1.07-1.34-.58-1.38-.68-3.61-.18-5.2.14-.41.72-1.69.49-2.08-.12-.37-.51-.59-.72-.88-.25-.37-.53-.84-.7-1.25-.47-1.09-.7-2.3-1.21-3.39-.24-.51-.64-1.03-.97-1.5-.37-.53-.78-.9-1.07-1.52-.1-.21-.23-.56-.08-.8.04-.16.12-.21.27-.25.25-.21.97.06,1.23.18.72.29,1.33.56,1.93.97.27.2.57.57.92.66h.41c.62.14,1.32.04,1.91.21,1.03.33,1.97.82,2.81,1.34,2.55,1.62,4.66,3.92,6.08,6.66.23.45.33.86.54,1.32.41.96.92,1.93,1.33,2.86.41.92.8,1.85,1.38,2.61.29.41,1.46.62,1.99.84.39.17.99.33,1.34.54.66.41,1.32.88,1.95,1.33.31.23,1.29.72,1.34,1.11h0c-1.56-.04-2.77.12-3.78.55-.29.12-.76.12-.8.49.16.16.18.41.31.62.23.39.64.91,1.01,1.19.41.31.82.62,1.25.9.76.47,1.62.74,2.35,1.21.43.27.86.62,1.29.92.21.16.35.41.62.51v-.06c-.14-.18-.18-.43-.31-.62Z"/>
      <path class="cls-1" d="M47.01,4.92v.04h.04c.16.31.43.53.62.8.16.31.29.62.45.93l.04-.04c.27-.19.41-.51.41-.97-.12-.14-.14-.27-.24-.41-.11-.2-.37-.29-.53-.45-.27,0-.54.03-.8.1Z"/>
      <polygon class="cls-1" points="68.84 42.64 68.3 41.29 67.72 41.29 67.72 43.27 68.1 43.27 68.1 41.76 68.12 41.76 68.68 43.27 68.97 43.27 69.53 41.76 69.53 43.27 69.93 43.27 69.93 41.29 69.33 41.29 68.84 42.64"/>
      <polygon class="cls-1" points="65.7 41.63 66.28 41.63 66.28 43.27 66.71 43.27 66.71 41.63 67.27 41.63 67.27 41.29 65.7 41.29 65.7 41.63"/>
      <polygon class="cls-1" points="59.35 27.15 56.77 27.15 56.77 43.27 64.44 43.27 64.44 41.28 59.35 41.28 59.35 27.15"/>
    </g>
  </g>
</svg>