<?xml version="1.0" encoding="UTF-8"?>
<svg id="Capa_2" data-name="Capa 2" xmlns="http://www.w3.org/2000/svg" viewBox="0 0 88.64 44.91">
  <defs>
    <style>
      .cls-1 {
        fill: #1e1e1c;
        stroke-width: 0px;
      }
    </style>
  </defs>
  <g id="Capa_1-2" data-name="Capa 1">
    <path class="cls-1" d="M44.32,44.91C19.83,44.91,0,34.87,0,22.46S19.83,0,44.32,0s44.32,10.05,44.32,22.46-19.83,22.46-44.32,22.46M25.14,15.68c1.96,0,3.3.36,3.95,1.12.65.72.8,2.03.47,3.73-.36,1.92-1.05,3.15-2.1,3.95-1.01.8-2.57,1.2-4.67,1.2h-3.15l1.92-10h3.42M11.98,35.68h5.61l1.17-6h4.53c2.01,0,3.65-.22,4.96-.63,1.3-.45,2.5-1.16,3.58-2.16.89-.82,1.6-1.71,2.16-2.72.56-.97.97-2.09,1.16-3.28.6-2.91.19-5.18-1.23-6.78-1.45-1.64-3.69-2.42-6.78-2.42h-10.17l-4.73,24.3M39,5.38l-4.73,24.3h5.22l2.75-14h4.23c1.34,0,2.23.22,2.64.67s.48,1.26.26,2.45l-2.12,10.88h5.35l2.2-11.44c.48-2.31.11-3.99-1.01-5.07-1.12-1.01-3.17-1.49-6.15-1.49h-4.61l1.23-6h-5.3M66.47,15.68c1.99,0,3.3.36,3.95,1.12.65.72.8,2.03.47,3.73-.36,1.92-1.05,3.15-2.07,3.95-1.05.8-2.61,1.2-4.71,1.2h-3.08l1.81-10h4.12M53.58,35.68h5.33l1.17-6h4.5c2.05,0,3.73-.22,5.03-.63,1.3-.45,2.42-1.16,3.54-2.16.89-.82,1.64-1.71,2.16-2.72.56-.97.97-2.09,1.19-3.28.56-2.91.15-5.18-1.27-6.78-1.34-1.64-3.69-2.42-6.78-2.42h-10.17l-4.71,24Z"/>
  </g>
</svg>