<?xml version="1.0" encoding="UTF-8"?>
<svg id="Capa_2" data-name="Capa 2" xmlns="http://www.w3.org/2000/svg" viewBox="0 0 56.7 42.5">
  <defs>
    <style>
      .cls-1 {
        fill: #000;
        stroke-width: 0px;
      }
    </style>
  </defs>
  <g id="Capa_1-2" data-name="Capa 1">
    <path class="cls-1" d="M48.8,24.43c-1.98,0-3.7.49-5.14,1.2-.53-1.05-1.06-1.98-1.15-2.66-.1-.8-.23-1.28-.1-2.24.13-.95.68-2.31.67-2.41,0-.1-.12-.59-1.27-.6-1.14,0-2.12.22-2.24.52-.11.3-.34.98-.47,1.69-.2,1.04-2.28,4.73-3.46,6.67-.39-.76-.72-1.42-.78-1.95-.1-.8-.23-1.28-.1-2.24.13-.96.68-2.31.67-2.41s-.12-.59-1.27-.6c-1.14,0-2.12.22-2.24.52-.11.3-.24,1.01-.47,1.69-.23.68-3,6.85-3.73,8.45-.37.82-.69,1.47-.92,1.92h0s-.01.03-.04.08c-.19.38-.31.59-.31.59,0,0,0,0,0,0-.15.28-.32.54-.4.54-.06,0-.17-.74.02-1.76.41-2.14,1.4-5.47,1.39-5.59,0-.06.18-.64-.65-.94-.81-.29-1.09.2-1.17.2-.07,0-.12.17-.12.17,0,0,.9-3.75-1.71-3.75-1.63,0-3.9,1.79-5.01,3.41-.7.38-2.21,1.21-3.81,2.08-.61.34-1.24.68-1.83,1.01-.04-.04-.08-.09-.12-.13-3.17-3.38-9.02-5.77-8.78-10.32.09-1.65.66-6,11.25-11.28,8.67-4.32,15.62-3.13,16.82-.5,1.71,3.77-3.71,10.77-12.72,11.78-3.43.39-5.24-.95-5.69-1.44-.47-.52-.54-.55-.72-.45-.29.16-.1.62,0,.89.27.7,1.37,1.94,3.25,2.56,1.66.54,5.69.84,10.56-1.04,5.46-2.11,9.72-7.98,8.47-12.89C34.24.21,25.96-1.43,18.12,1.35c-4.67,1.66-9.72,4.26-13.35,7.65C.46,13.04-.23,16.55.06,18.02c1.01,5.22,8.2,8.61,11.08,11.13-.14.08-.28.15-.4.22-1.44.71-6.92,3.58-8.3,6.61-1.56,3.44.25,5.9,1.44,6.24,3.7,1.03,7.49-.82,9.53-3.86,2.04-3.04,1.79-7,.85-8.81-.01-.02-.02-.04-.04-.07.37-.22.75-.44,1.13-.67.73-.43,1.46-.83,2.08-1.17-.35.96-.61,2.11-.74,3.77-.16,1.95.64,4.47,1.69,5.47.46.44,1.02.45,1.37.45,1.22,0,1.77-1.01,2.39-2.21.75-1.47,1.42-3.18,1.42-3.18,0,0-.84,4.62,1.44,4.62.83,0,1.66-1.08,2.04-1.62,0,0,0,0,0,0,0,0,.02-.04.06-.11.09-.13.14-.22.14-.22,0,0,0,0,0-.02.33-.58,1.07-1.9,2.18-4.07,1.43-2.81,2.81-6.33,2.81-6.33,0,0,.13.86.55,2.29.25.84.77,1.77,1.18,2.65-.33.46-.54.72-.54.72,0,0,0,0,0,.01-.27.35-.56.73-.87,1.1-1.13,1.35-2.48,2.89-2.66,3.33-.21.52-.16.91.25,1.22.3.23.83.26,1.39.22,1.02-.07,1.73-.32,2.08-.47.55-.19,1.19-.5,1.79-.94,1.11-.82,1.78-1.98,1.71-3.53-.04-.85-.31-1.7-.65-2.49.1-.14.2-.29.3-.44,1.75-2.56,3.11-5.37,3.11-5.37,0,0,.13.86.55,2.29.21.72.63,1.51,1.01,2.28-1.64,1.34-2.66,2.89-3.02,3.91-.65,1.88-.14,2.74.82,2.93.44.09,1.05-.11,1.51-.31.58-.19,1.27-.51,1.92-.99,1.11-.82,2.18-1.96,2.11-3.5-.03-.7-.22-1.4-.48-2.07,1.39-.58,3.2-.9,5.5-.64,4.93.58,5.9,3.66,5.71,4.94-.19,1.29-1.22,2-1.57,2.21-.35.21-.45.29-.42.45.04.23.2.22.5.17.41-.07,2.59-1.05,2.68-3.43.12-3.02-2.78-6.34-7.9-6.31ZM10.79,37.24c-1.63,1.78-3.91,2.46-4.89,1.89-1.06-.61-.64-3.24,1.37-5.13,1.22-1.15,2.8-2.21,3.85-2.87.24-.14.59-.35,1.01-.61.07-.04.11-.06.11-.06h0c.08-.05.17-.1.25-.15.73,2.69.02,5.06-1.69,6.93ZM22.69,29.16c-.57,1.39-1.76,4.94-2.48,4.75-.62-.16-1-2.86-.12-5.52.44-1.34,1.38-2.93,1.94-3.55.89-1,1.87-1.32,2.11-.92.3.52-1.08,4.37-1.44,5.24ZM32.52,33.85c-.24.13-.46.2-.56.14-.08-.04.1-.21.1-.21,0,0,1.23-1.32,1.71-1.93.28-.35.61-.77.96-1.23,0,.05,0,.09,0,.14,0,1.59-1.53,2.65-2.22,3.09ZM40.09,32.12c-.18-.13-.15-.54.44-1.83.23-.51.76-1.36,1.68-2.17.11.33.17.66.17.95-.01,1.99-1.43,2.74-2.3,3.05Z"/>
  </g>
</svg>