<?xml version="1.0" encoding="UTF-8"?>
<svg id="Capa_2" data-name="Capa 2" xmlns="http://www.w3.org/2000/svg" viewBox="0 0 41.78 41.78">
  <defs>
    <style>
      .cls-1 {
        fill: #010101;
        stroke-width: 0px;
      }
    </style>
  </defs>
  <g id="Capa_1-2" data-name="Capa 1">
    <g>
      <path class="cls-1" d="M0,20.89c0,8.27,4.8,15.41,11.77,18.8L1.81,12.39c-1.16,2.6-1.81,5.47-1.81,8.5Z"/>
      <path class="cls-1" d="M21.26,22.72l-6.27,18.21c4.23,1.25,8.71,1.12,12.84-.33-.06-.09-.11-.19-.15-.29l-6.42-17.59Z"/>
      <path class="cls-1" d="M39.22,10.87c.09.67.14,1.38.14,2.15,0,3.67-.34,3.88-7.97,25.93,6.21-3.62,10.39-10.35,10.39-18.06,0-3.63-.93-7.05-2.56-10.02Z"/>
      <path class="cls-1" d="M33.27,14.07c-1.06-1.72-2.05-3.18-2.05-4.9,0-1.92,1.46-3.71,3.51-3.71.09,0,.18.01.27.02C31.28,2.08,26.33,0,20.89,0,13.59,0,7.17,3.74,3.44,9.41c1.33.04,3.12.06,6.91-.24,1.13-.07,1.26,1.59.13,1.72,0,0-1.13.13-2.39.2l7.61,22.63,4.57-13.71-3.25-8.92c-1.12-.07-2.19-.2-2.19-.2-1.13-.07-.99-1.79.13-1.72,4.32.33,6.53.36,11.07,0,1.13-.07,1.26,1.59.13,1.72,0,0-1.13.13-2.39.2l7.55,22.46c2.98-9.96,3.67-11.63,3.67-13.72,0-2.58-.93-4.37-1.72-5.76Z"/>
    </g>
  </g>
</svg>